<?xml version="1.0" encoding="UTF-8"?>
<svg xmlns="http://www.w3.org/2000/svg" xmlns:xlink="http://www.w3.org/1999/xlink" width="18px" height="18px" viewBox="0 0 18 18" version="1.1">
<g id="surface1">
<path style=" stroke:none;fill-rule:nonzero;fill:rgb(0%,0%,0%);fill-opacity:1;" d="M 15.203125 4.785156 L 12 8.25 L 12 6 C 12 5.171875 11.328125 4.5 10.5 4.5 L 3 4.5 C 2.171875 4.5 1.5 5.171875 1.5 6 L 1.5 13.5 C 1.5 14.328125 2.171875 15 3 15 L 10.5 15 C 11.328125 15 12 14.328125 12 13.5 L 12 11.625 L 15.21875 14.84375 C 15.429688 15.058594 15.753906 15.125 16.035156 15.007812 C 16.316406 14.890625 16.5 14.621094 16.5 14.320312 L 16.5 5.320312 C 16.507812 5.007812 16.324219 4.722656 16.035156 4.601562 C 15.746094 4.484375 15.414062 4.554688 15.203125 4.785156 Z M 15.203125 4.785156 "/>
</g>
</svg>
